HIERARCHY
ROOT Hips
{
	OFFSET 0.000000 0.000000 0.000000
	CHANNELS 6 Xposition Yposition Zposition Zrotation Yrotation Xrotation 
	JOINT LHipJoint
	{
		OFFSET 0.000000 0.000000 0.000000
		CHANNELS 3 Zrotation Yrotation Xrotation
		JOINT LeftUpLeg
		{
			OFFSET 1.363060 -1.794630 0.839290
			CHANNELS 3 Zrotation Yrotation Xrotation
			JOINT LeftLeg
			{
				OFFSET 2.448110 -6.726130 0.000000
				CHANNELS 3 Zrotation Yrotation Xrotation
				JOINT LeftFoot
				{
					OFFSET 2.562200 -7.039590 0.000000
					CHANNELS 3 Zrotation Yrotation Xrotation
					JOINT LeftToeBase
					{
						OFFSET 0.157640 -0.433110 2.322550
						CHANNELS 3 Zrotation Yrotation Xrotation
						End Site
						{
							OFFSET 0.000000 0.000000 0.000000
						}
					}
				}
			}
		}
	}
	JOINT RHipJoint
	{
		OFFSET 0.000000 0.000000 0.000000
		CHANNELS 3 Zrotation Yrotation Xrotation
		JOINT RightUpLeg
		{
			OFFSET -1.305520 -1.794630 0.839290
			CHANNELS 3 Zrotation Yrotation Xrotation
			JOINT RightLeg
			{
				OFFSET -2.542530 -6.985550 0.000000
				CHANNELS 3 Zrotation Yrotation Xrotation
				JOINT RightFoot
				{
					OFFSET -2.568260 -7.056230 0.000000
					CHANNELS 3 Zrotation Yrotation Xrotation
					JOINT RightToeBase
					{
						OFFSET -0.164730 -0.452590 2.363150
						CHANNELS 3 Zrotation Yrotation Xrotation
						End Site
						{
							OFFSET 0.000000 0.000000 0.000000
						}
					}
				}
			}
		}
	}
	JOINT LowerBack
	{
		OFFSET 0.000000 0.000000 0.000000
		CHANNELS 3 Zrotation Yrotation Xrotation
		JOINT Spine
		{
			OFFSET 0.028270 2.035590 -0.193380
			CHANNELS 3 Zrotation Yrotation Xrotation
			JOINT Spine1
			{
				OFFSET 0.056720 2.048850 -0.042750
				CHANNELS 3 Zrotation Yrotation Xrotation
				JOINT Neck
				{
					OFFSET 0.000000 0.000000 0.000000
					CHANNELS 3 Zrotation Yrotation Xrotation
					JOINT Neck1
					{
						OFFSET -0.054170 1.746240 0.172020
						CHANNELS 3 Zrotation Yrotation Xrotation
						JOINT Head
						{
							OFFSET 0.104070 1.761360 -0.123970
							CHANNELS 3 Zrotation Yrotation Xrotation
							End Site
							{
								OFFSET 0.000000 0.000000 0.000000
							}
						}
					}
				}
				JOINT LeftShoulder
				{
					OFFSET 0.000000 0.000000 0.000000
					CHANNELS 3 Zrotation Yrotation Xrotation
					JOINT LeftArm
					{
						OFFSET 3.362410 1.200890 -0.311210
						CHANNELS 3 Zrotation Yrotation Xrotation
						JOINT LeftForeArm
						{
							OFFSET 4.983000 -0.000000 -0.000000
							CHANNELS 3 Zrotation Yrotation Xrotation
							JOINT LeftHand
							{
								OFFSET 3.483560 -0.000000 -0.000000
								CHANNELS 3 Zrotation Yrotation Xrotation
								JOINT LeftFingerBase
								{
									OFFSET 0.000000 0.000000 0.000000
									CHANNELS 3 Zrotation Yrotation Xrotation
									JOINT LeftHandIndex1
									{
										OFFSET 0.715260 -0.000000 -0.000000
										CHANNELS 3 Zrotation Yrotation Xrotation
										End Site
										{
											OFFSET 0.000000 0.000000 0.000000
										}
									}
								}
								JOINT LThumb
								{
									OFFSET 0.000000 0.000000 0.000000
									CHANNELS 3 Zrotation Yrotation Xrotation
									End Site
									{
										OFFSET 0.000000 0.000000 0.000000
									}
								}
							}
						}
					}
				}
				JOINT RightShoulder
				{
					OFFSET 0.000000 0.000000 0.000000
					CHANNELS 3 Zrotation Yrotation Xrotation
					JOINT RightArm
					{
						OFFSET -3.136600 1.374050 -0.404650
						CHANNELS 3 Zrotation Yrotation Xrotation
						JOINT RightForeArm
						{
							OFFSET -5.241900 -0.000000 -0.000000
							CHANNELS 3 Zrotation Yrotation Xrotation
							JOINT RightHand
							{
								OFFSET -3.444170 -0.000000 -0.000000
								CHANNELS 3 Zrotation Yrotation Xrotation
								JOINT RightFingerBase
								{
									OFFSET 0.000000 0.000000 0.000000
									CHANNELS 3 Zrotation Yrotation Xrotation
									JOINT RightHandIndex1
									{
										OFFSET -0.622530 -0.000000 -0.000000
										CHANNELS 3 Zrotation Yrotation Xrotation
										End Site
										{
											OFFSET 0.000000 0.000000 0.000000
										}
									}
								}
								JOINT RThumb
								{
									OFFSET 0.000000 0.000000 0.000000
									CHANNELS 3 Zrotation Yrotation Xrotation
									End Site
									{
										OFFSET 0.000000 0.000000 0.000000
									}
								}
							}
						}
					}
				}
			}
		}
	}
}
MOTION
Frames: 9
Frame Time: 0.008333
8.377259 17.849804 33.935010 178.745569 -1.462041 -154.872062 8.699623 1.229567 -1.798513 -25.480337 -18.874746 -18.293647 -1.040455 6.849525 16.092634 1.217872 -0.441339 -21.293848 6.101400 -14.525900 -45.387500 -13.119749 -2.976354 -1.741233 32.277774 16.385727 -14.864044 1.346832 -4.147973 9.968970 -1.337588 -1.225810 -22.945233 -1.752000 8.329300 -23.718800 -3.241244 -0.253091 -25.109508 1.611711 -0.892392 -5.029806 0.003008 -1.429164 14.907668 -8.644280 -2.895913 -9.243193 10.427651 -4.758451 14.856443 1.227000 -1.594400 3.941600 15.846248 -0.385946 0.452561 -106.351289 -0.182062 9.486615 12.304224 -14.644417 -1.935222 -1.955217 0.997357 7.703401 22.372255 -11.098022 -5.274400 -7.125000 0.000000 0.000000 -1.906800 17.146200 1.260600 -10.905786 -0.449967 -0.237199 98.600322 -3.815398 4.589839 -13.058695 23.671621 -3.607695 0.671732 4.299377 3.235543 -9.871561 -52.498702 8.655700 7.125000 0.000000 0.000000 82.093600 -75.735900 -67.269700 
8.377917 17.845413 33.933583 178.575434 -1.395770 -154.954497 8.697331 1.242850 -1.785589 -25.758465 -18.888241 -18.208618 -1.029884 6.880956 16.189012 1.226574 -0.429782 -21.351143 6.153800 -14.575800 -45.596000 -13.096656 -2.988585 -1.763298 32.084904 16.172046 -14.870350 1.330455 -4.176501 10.083923 -1.350573 -1.064879 -22.971214 -1.779400 8.390600 -23.906900 -3.449411 -0.293681 -25.029818 1.588063 -0.861249 -5.021771 0.061600 -1.420040 14.886980 -8.824639 -2.808076 -9.168668 10.687594 -4.711299 14.800414 1.366900 -1.571700 3.916200 15.842475 -0.418752 0.457753 -106.308700 -0.222829 9.325151 12.304358 -14.658279 -1.939842 -1.925272 1.023096 7.792928 22.162825 -11.312641 -5.323100 -7.125000 0.000000 0.000000 -2.083200 16.907100 1.388300 -10.922560 -0.464934 -0.239374 98.632017 -3.853481 4.800856 -13.191077 23.854865 -3.677633 0.703379 4.258511 3.105130 -10.451369 -51.851902 9.109900 7.125000 0.000000 0.000000 79.276700 -75.918100 -64.699900 
8.376710 17.844535 33.933034 178.449210 -1.348690 -154.947880 8.704819 1.235170 -1.784362 -25.939642 -19.006054 -18.223065 -1.019527 6.940234 16.330895 1.241737 -0.371480 -21.450651 6.124500 -14.548000 -45.479600 -13.084627 -2.982197 -1.765826 31.901116 16.150638 -15.013699 1.316613 -4.269283 10.308800 -1.362145 -1.024277 -23.063761 -1.776500 8.384100 -23.886900 -3.606187 -0.312519 -25.061156 1.566840 -0.826851 -5.014517 0.101617 -1.405473 14.897285 -9.007400 -2.667211 -8.957185 10.979746 -4.629648 14.576745 1.517500 -1.543500 3.784800 15.843237 -0.473575 0.466582 -106.254797 -0.272114 9.227731 12.327132 -14.707162 -1.952363 -1.889699 1.004594 7.694664 21.832528 -11.262116 -5.207900 -7.125000 0.000000 0.000000 -2.337300 17.006000 1.552800 -10.937593 -0.502276 -0.239158 98.676729 -3.870230 5.057136 -13.317523 24.030836 -3.747628 0.747640 4.219912 2.904998 -11.283736 -51.224795 9.782400 7.125000 0.000000 0.000000 76.426700 -76.175700 -62.221500 
8.373856 17.845194 33.931278 178.503487 -1.406070 -154.938056 8.712054 1.217235 -1.796359 -25.850752 -19.064782 -18.331309 -1.001429 7.020944 16.528316 1.242334 -0.416609 -21.501546 6.049900 -14.476600 -45.181800 -13.092263 -2.967765 -1.751340 31.942227 16.301229 -15.137420 1.312144 -4.385481 10.568046 -1.371170 -1.172041 -23.218402 -1.800800 8.438200 -24.053100 -3.541927 -0.287854 -25.102883 1.573600 -0.821069 -5.009659 0.105517 -1.394037 14.917730 -9.202174 -2.562416 -8.855296 11.221726 -4.559908 14.496507 1.659100 -1.513300 3.739400 15.847090 -0.506697 0.470976 -106.239637 -0.288838 9.339415 12.361081 -14.756863 -1.962866 -1.902665 0.963127 7.525439 21.893016 -10.994747 -5.093400 -7.125000 0.000000 0.000000 -2.276100 17.328300 1.496000 -10.952204 -0.524956 -0.240186 98.702672 -3.862468 5.257061 -13.436599 24.198222 -3.814629 0.783847 4.183505 2.598072 -12.093676 -50.606674 10.425700 7.125000 0.000000 0.000000 73.530600 -76.402700 -59.702400 
8.369466 17.841352 33.924143 178.586698 -1.464977 -155.027940 8.709980 1.217658 -1.802188 -25.787387 -19.035393 -18.287895 -0.989348 7.051696 16.631118 1.240605 -0.430195 -21.486040 6.074500 -14.500100 -45.279800 -13.097373 -2.969827 -1.749283 32.046922 16.360021 -15.080103 1.307908 -4.436240 10.709729 -1.379294 -1.239298 -23.302648 -1.825600 8.492900 -24.221600 -3.419068 -0.270997 -25.103643 1.590115 -0.838239 -4.994016 0.090073 -1.393055 14.971804 -9.297226 -2.555050 -8.832147 11.277540 -4.563234 14.579359 1.707600 -1.511800 3.767300 15.851421 -0.509097 0.475075 -106.253813 -0.272679 9.467355 12.392096 -14.803296 -1.974078 -1.912809 0.939078 7.460327 21.958843 -10.839489 -5.033600 -7.125000 0.000000 0.000000 -2.216800 17.514400 1.448000 -10.962084 -0.528667 -0.240411 98.684379 -3.862857 5.460980 -13.547119 24.356502 -3.876360 0.822002 4.142700 2.379270 -12.819567 -49.925014 10.976000 7.125000 0.000000 0.000000 70.304100 -76.557200 -56.831200 
8.370014 17.838169 33.919753 178.601602 -1.474729 -155.106131 8.713415 1.219711 -1.816950 -25.818751 -18.942406 -18.184483 -0.988382 7.030179 16.606722 1.235847 -0.413731 -21.411595 6.122200 -14.545700 -45.470000 -13.102205 -2.956833 -1.731818 32.099054 16.633039 -15.009790 1.302562 -4.538745 10.971709 -1.399640 -1.403685 -23.532632 -1.799500 8.435300 -24.044200 -3.432093 -0.254816 -25.095931 1.584673 -0.806398 -4.973956 0.112954 -1.370637 14.994987 -9.359592 -2.436478 -8.449785 11.386510 -4.507693 14.326798 1.757500 -1.504600 3.565600 15.866051 -0.563558 0.489837 -106.194732 -0.263389 9.674911 12.431638 -14.877048 -1.994802 -1.905081 0.943016 7.321239 21.890631 -10.981100 -5.080400 -7.125000 0.000000 0.000000 -2.278300 17.358400 1.496000 -10.968225 -0.572625 -0.233858 98.722046 -3.870477 5.635731 -13.649457 24.494956 -3.935896 0.909756 4.063519 2.263700 -14.044157 -48.614045 11.856400 7.125000 0.000000 0.000000 64.036300 -76.692900 -51.206000 
8.371441 17.836962 33.918765 178.618539 -1.479973 -155.148842 8.715386 1.221188 -1.821435 -25.809132 -18.945974 -18.134558 -0.985475 7.037124 16.637479 1.239144 -0.373120 -21.404582 6.112800 -14.536800 -45.432800 -13.109737 -2.943177 -1.722469 32.135801 16.814977 -14.962911 1.303565 -4.582566 11.080444 -1.406129 -1.549224 -23.643522 -1.782100 8.396700 -23.925600 -3.425728 -0.255813 -25.073607 1.578662 -0.800668 -4.964953 0.103075 -1.372391 15.014322 -9.290202 -2.552602 -8.539134 11.278320 -4.623251 14.491205 1.700600 -1.552900 3.648600 15.879396 -0.545343 0.484668 -106.120630 -0.254095 9.864927 12.471373 -14.947486 -2.016346 -1.896514 0.971575 7.039875 21.819414 -11.364795 -5.241900 -7.125000 0.000000 0.000000 -2.355300 16.910200 1.569700 -10.982166 -0.551806 -0.237582 98.768877 -3.852642 5.870485 -13.764918 24.663611 -3.998956 0.929681 4.069140 2.046059 -14.601886 -48.717634 12.354500 7.125000 0.000000 0.000000 64.181900 -76.955900 -51.614000 
8.372758 17.836742 33.917668 178.602331 -1.473379 -155.225619 8.713986 1.226204 -1.816393 -25.852634 -18.997781 -18.039360 -0.982192 7.048356 16.683923 1.252508 -0.309674 -21.470838 6.053900 -14.480400 -45.197800 -13.108485 -2.946852 -1.727725 32.145478 16.821659 -14.842249 1.306552 -4.555741 11.040505 -1.404623 -1.619636 -23.638751 -1.794000 8.423100 -24.006700 -3.474042 -0.265974 -24.990341 1.576851 -0.794900 -4.961255 0.130732 -1.367590 14.978904 -9.297571 -2.471441 -8.447893 11.330258 -4.546310 14.417795 1.722200 -1.518700 3.598100 15.890484 -0.564387 0.487183 -106.086178 -0.247643 9.886083 12.505306 -14.983066 -2.015842 -1.949277 0.857935 6.903398 22.194895 -10.420576 -4.881500 -7.125000 0.000000 0.000000 -2.013600 18.016400 1.292900 -10.991772 -0.553880 -0.237380 98.817207 -3.826072 6.060339 -13.882127 24.826381 -4.062578 0.934215 4.114920 1.847230 -15.020085 -49.478579 12.838400 7.125000 0.000000 0.000000 67.426400 -77.348600 -55.005100 
8.374076 17.834657 33.914814 178.545078 -1.446705 -155.253769 8.709990 1.234279 -1.810704 -25.939956 -18.959456 -18.032105 -0.976757 7.060843 16.720854 1.250433 -0.346814 -21.475019 6.195400 -14.615000 -45.760900 -13.105529 -2.947023 -1.734325 32.090645 16.780569 -14.821014 1.301797 -4.561068 11.071501 -1.406554 -1.591145 -23.632945 -1.766500 8.361800 -23.818600 -3.581499 -0.302964 -24.981771 1.577546 -0.804791 -4.962728 0.175603 -1.386884 14.979032 -9.115030 -2.674810 -8.558560 11.008852 -4.722660 14.647335 1.551800 -1.596000 3.701100 15.898515 -0.524638 0.480431 -106.060645 -0.232172 9.878231 12.519050 -15.000749 -2.018439 -1.952455 0.817314 6.880012 22.203287 -10.084649 -4.718900 -7.125000 0.000000 0.000000 -1.991100 18.422400 1.260600 -10.994471 -0.512629 -0.243327 98.847510 -3.791234 6.282404 -14.000166 24.990172 -4.122412 0.917157 4.149842 1.653492 -15.110520 -50.070813 13.008800 7.125000 0.000000 0.000000 70.162900 -77.521300 -57.740600 
